#!OML:ASF I:\Actors\actors\Patient Classification 1\Patient 1\Session 1\Subject1.ASF
:FULLY-SPECIFIED
:DEGREES
580
root 0.751378 17.6105 9.66281 15.493 -16.0874 -9.02099
lowerback 6.48974 -3.90618 4.38931
upperback -11.2215 -4.36913 3.56287
thorax -16.2708 -2.30684 2.49107
lowerneck -18.98 -1.47985 1.4697
upperneck 22.8502 -2.01876 -2.2006
head 10.4199 -1.09492 -1.32551
rclavicle -3.1408e-014 2.50469e-014
rhumerus -12.8067 4.63741 -32.0103
rradius 68.9515
rwrist -24.7438
rhand 9.35713 -27.446
rfingers 7.12502
rthumb 34.5163 305.886
lclavicle -3.1408e-014 2.50469e-014
lhumerus 66.6236 -81.7845 28.6266
lradius 115.883
lwrist 73.7218
lhand -9.74877 -15.0285
lfingers 7.12502
lthumb 16.2256 14.3125
rfemur -11.3183 25.5648 21.4535
rtibia 1.92237
rfoot -9.353 -15.7994
rtoes 4.21525
lfemur 1.7213 -33.9355 -12.316
ltibia -2.81841
lfoot -26.5593 53.351
ltoes 16.9509
581
root 0.733293 17.6133 9.65389 15.4809 -15.0884 -9.14717
lowerback 6.65718 -4.08897 4.09169
upperback -11.379 -4.65285 3.53603
thorax -16.5524 -2.40028 2.71457
lowerneck -19.2031 -1.5926 1.51631
upperneck 22.83 -2.30075 -1.79214
head 10.4539 -1.16889 -1.23049
rclavicle 7.50412e-014 -3.06128e-014
rhumerus -13.3657 4.44346 -31.9817
rradius 69.3343
rwrist -24.5289
rhand 9.42544 -27.365
rfingers 7.12502
rthumb 34.5812 305.982
lclavicle 7.50412e-014 -3.06128e-014
lhumerus 67.1217 -81.365 29.7479
lradius 115.623
lwrist 75.701
lhand -10.0122 -14.9795
lfingers 7.12502
lthumb 15.9719 14.3821
rfemur -11.151 25.4035 21.8046
rtibia 1.82066
rfoot -9.51775 -16.4573
rtoes 4.48648
lfemur 1.5061 -34.6978 -11.8104
ltibia -2.85201
lfoot -26.1158 53.3515
ltoes 16.5419
582
root 0.719278 17.6181 9.6475 15.4418 -14.0731 -9.17689
lowerback 6.72721 -4.29608 3.70688
upperback -11.4721 -4.98667 3.55065
thorax -16.6721 -2.50412 3.02739
lowerneck -19.1246 -1.73938 1.43933
upperneck 22.1845 -2.55824 -1.4681
head 10.2065 -1.25607 -1.12787
rclavicle 5.63555e-014 -7.95139e-016
rhumerus -13.7323 4.25294 -31.8854
rradius 69.6534
rwrist -24.4821
rhand 9.41936 -27.2616
rfingers 7.12502
rthumb 34.5754 306.084
lclavicle 5.63555e-014 -7.95139e-016
lhumerus 67.0831 -80.8722 31.4468
lradius 115.649
lwrist 76.2958
lhand -10.5074 -14.8351
lfingers 7.12502
lthumb 15.4949 14.564
rfemur -10.9752 25.194 22.0308
rtibia 1.71546
rfoot -9.71783 -17.0903
rtoes 4.79483
lfemur 1.25773 -35.4303 -11.4315
ltibia -2.83295
lfoot -25.196 53.395
ltoes 15.4247
583
root 0.706535 17.6238 9.64231 15.3821 -13.1176 -9.20952
lowerback 6.75068 -4.45659 3.34343
upperback -11.4771 -5.25855 3.5543
thorax -16.6491 -2.58468 3.28842
lowerneck -19.1652 -1.67076 1.54666
upperneck 21.8819 -2.58469 -1.09915
head 10.1096 -1.2148 -1.0151
rclavicle -1.635e-014 2.42517e-014
rhumerus -14.1691 4.01871 -31.6954
rradius 70.0819
rwrist -24.7066
rhand 9.36112 -27.2532
rfingers 7.12502
rthumb 34.5201 306.08
lclavicle -1.635e-014 2.42517e-014
lhumerus 66.5051 -80.3094 33.7045
lradius 115.875
lwrist 76.1659
lhand -10.6564 -14.2955
lfingers 7.12502
lthumb 15.3515 15.1147
rfemur -10.788 25.0329 22.2531
rtibia 1.64482
rfoot -10.001 -17.7247
rtoes 5.5439
lfemur 1.10647 -36.1796 -11.0916
ltibia -2.90898
lfoot -24.2967 53.4718
ltoes 14.3366
584
root 0.693508 17.6296 9.63469 15.3135 -12.2542 -9.28394
lowerback 6.72056 -4.56939 3.00504
upperback -11.3636 -5.46415 3.55713
thorax -16.4418 -2.64211 3.50104
lowerneck -19.3731 -1.64824 1.54284
upperneck 21.5878 -2.66959 -0.622727
head 10.0502 -1.19673 -0.857208
rclavicle -2.23136e-014 -5.1684e-015
rhumerus -14.6507 3.52657 -31.5621
rradius 70.64
rwrist -24.8901
rhand 9.45606 -27.3611
rfingers 7.12502
rthumb 34.6102 305.993
lclavicle -2.23136e-014 -5.1684e-015
lhumerus 65.3098 -79.5252 36.5175
lradius 116.09
lwrist 75.4878
lhand -10.1285 -13.8257
lfingers 7.12502
lthumb 15.8599 15.5448
rfemur -10.6017 24.9052 22.5182
rtibia 1.56388
rfoot -10.2443 -18.3248
rtoes 6.30391
lfemur 0.974439 -36.7428 -10.6978
ltibia -3.00885
lfoot -23.7222 53.3638
ltoes 13.8022
585
root 0.682917 17.6345 9.62401 15.2622 -11.5058 -9.33503
lowerback 6.76348 -4.66986 2.6939
upperback -11.2523 -5.64602 3.55222
thorax -16.2887 -2.69172 3.6932
lowerneck -19.5101 -1.67839 1.43578
upperneck 21.0844 -2.78608 -0.156856
head 9.90447 -1.20581 -0.687969
rclavicle 3.03147e-015 -3.53837e-014
rhumerus -15.1534 3.0596 -31.5314
rradius 71.243
rwrist -24.8735
rhand 9.65979 -27.3799
rfingers 7.12502
rthumb 34.8036 306.018
lclavicle 3.03147e-015 -3.53837e-014
lhumerus 63.6811 -78.6773 39.4799
lradius 116.29
lwrist 73.9529
lhand -9.24478 -13.9652
lfingers 7.12502
lthumb 16.7108 15.3355
rfemur -10.4825 24.8197 22.7136
rtibia 1.48739
rfoot -10.4381 -18.8605
rtoes 6.94316
lfemur 0.737428 -37.1297 -10.315
ltibia -2.99757
lfoot -23.3412 53.1496
ltoes 13.5246
